SplineFontDB: 3.0
FontName: CaladingsCLM
FullName: Caladings CLM
FamilyName: Caladings CLM
Weight: Book
Copyright: Copyright (c) 2003-2010 by Maxim Iorsh (iorsh@math.technion.ac.il). Distributed under the terms of GNU General Public License version 2(http://www.gnu.org/licenses/gpl.html). \nAll rights reserved.
Version: 0.120
ItalicAngle: 0
UnderlinePosition: -150
UnderlineWidth: 50
Ascent: 800
Descent: 200
InvalidEm: 0
sfntRevision: 0x00001eb8
LayerCount: 2
Layer: 0 1 "Back" 1
Layer: 1 1 "Fore" 0
XUID: [1021 534 -491386816 23932]
StyleMap: 0x0000
FSType: 0
OS2Version: 1
OS2_WeightWidthSlopeOnly: 0
OS2_UseTypoMetrics: 0
CreationTime: 1516479143
ModificationTime: 1537430901
PfmFamily: 17
TTFWeight: 400
TTFWidth: 5
LineGap: 90
VLineGap: 0
Panose: 2 0 5 3 0 0 0 0 0 0
OS2TypoAscent: 800
OS2TypoAOffset: 0
OS2TypoDescent: -200
OS2TypoDOffset: 0
OS2TypoLinegap: 90
OS2WinAscent: 740
OS2WinAOffset: 0
OS2WinDescent: 29
OS2WinDOffset: 0
HheadAscent: 740
HheadAOffset: 0
HheadDescent: -29
HheadDOffset: 0
OS2SubXSize: 650
OS2SubYSize: 700
OS2SubXOff: 0
OS2SubYOff: 140
OS2SupXSize: 650
OS2SupYSize: 700
OS2SupXOff: 0
OS2SupYOff: 480
OS2StrikeYSize: 49
OS2StrikeYPos: 258
OS2Vendor: 'PfEd'
OS2CodePages: 00000001.00000000
OS2UnicodeRanges: 00000001.00000000.00000000.00000000
DEI: 91125
ShortTable: maxp 16
  1
  0
  41
  176
  13
  0
  0
  2
  0
  1
  1
  0
  64
  0
  0
  0
EndShort
LangName: 1033 "" "" "Regular" "FontForge 2.0 : Caladings CLM : 20-1-2018"
GaspTable: 1 65535 2 0
Encoding: UnicodeBmp
UnicodeInterp: none
NameList: AGL For New Fonts
DisplaySize: -128
AntiAlias: 1
FitToEm: 0
WinInfo: 0 19 9
BeginChars: 65539 41

StartChar: exclam
Encoding: 33 33 4
Width: 700
GlyphClass: 2
Flags: W
LayerCount: 2
Fore
SplineSet
243 165 m 1,0,-1
 30 165 l 1,1,-1
 136 350 l 1,2,-1
 30 535 l 1,3,-1
 243 535 l 1,4,-1
 350 720 l 1,5,-1
 457 535 l 1,6,-1
 670 535 l 1,7,-1
 564 350 l 1,8,-1
 670 165 l 1,9,-1
 457 165 l 1,10,-1
 350 -20 l 1,11,-1
 243 165 l 1,0,-1
EndSplineSet
EndChar

StartChar: quotedbl
Encoding: 34 34 5
Width: 700
GlyphClass: 2
Flags: W
LayerCount: 2
Fore
SplineSet
268 208 m 1,0,-1
 350 65 l 1,1,-1
 432 208 l 1,2,-1
 596 208 l 1,3,-1
 514 350 l 1,4,-1
 596 492 l 1,5,-1
 432 492 l 1,6,-1
 350 635 l 1,7,-1
 268 492 l 1,8,-1
 104 492 l 1,9,-1
 186 350 l 1,10,-1
 104 208 l 1,11,-1
 268 208 l 1,0,-1
243 165 m 1,12,-1
 30 165 l 1,13,-1
 136 350 l 1,14,-1
 30 535 l 1,15,-1
 243 535 l 1,16,-1
 350 720 l 1,17,-1
 457 535 l 1,18,-1
 670 535 l 1,19,-1
 564 350 l 1,20,-1
 670 165 l 1,21,-1
 457 165 l 1,22,-1
 350 -20 l 1,23,-1
 243 165 l 1,12,-1
EndSplineSet
EndChar

StartChar: numbersign
Encoding: 35 35 6
Width: 700
GlyphClass: 2
Flags: W
LayerCount: 2
Fore
SplineSet
350 720 m 1,0,-1
 457 535 l 1,1,-1
 670 535 l 1,2,-1
 564 350 l 1,3,-1
 670 165 l 1,4,-1
 457 165 l 1,5,-1
 350 -20 l 1,6,-1
 243 165 l 1,7,-1
 30 165 l 1,8,-1
 136 350 l 1,9,-1
 30 535 l 1,10,-1
 243 535 l 1,11,-1
 350 720 l 1,0,-1
268 492 m 1,12,-1
 186 350 l 1,13,-1
 268 208 l 1,14,-1
 432 208 l 1,15,-1
 514 350 l 1,16,-1
 432 492 l 1,17,-1
 268 492 l 1,12,-1
161 393 m 1,18,-1
 219 492 l 1,19,-1
 104 492 l 1,20,-1
 161 393 l 1,18,-1
219 208 m 1,21,-1
 161 307 l 1,22,-1
 104 208 l 1,23,-1
 219 208 l 1,21,-1
407 165 m 1,24,-1
 293 165 l 1,25,-1
 350 65 l 1,26,-1
 407 165 l 1,24,-1
539 307 m 1,27,-1
 481 208 l 1,28,-1
 596 208 l 1,29,-1
 539 307 l 1,27,-1
481 492 m 1,30,-1
 539 393 l 1,31,-1
 596 492 l 1,32,-1
 481 492 l 1,30,-1
293 535 m 1,33,-1
 407 535 l 1,34,-1
 350 635 l 1,35,-1
 293 535 l 1,33,-1
EndSplineSet
EndChar

StartChar: dollar
Encoding: 36 36 7
Width: 700
GlyphClass: 2
Flags: W
LayerCount: 2
Fore
SplineSet
210 350 m 1,0,-1
 280 229 l 1,1,-1
 420 229 l 1,2,-1
 490 350 l 1,3,-1
 420 471 l 1,4,-1
 280 471 l 1,5,-1
 210 350 l 1,0,-1
383 535 m 1,6,-1
 350 592 l 1,7,-1
 317 535 l 1,8,-1
 383 535 l 1,6,-1
206 471 m 1,9,-1
 140 471 l 1,10,-1
 173 414 l 1,11,-1
 206 471 l 1,9,-1
140 229 m 1,12,-1
 206 229 l 1,13,-1
 173 286 l 1,14,-1
 140 229 l 1,12,-1
350 108 m 1,15,-1
 383 165 l 1,16,-1
 317 165 l 1,17,-1
 350 108 l 1,15,-1
494 229 m 1,18,-1
 560 229 l 1,19,-1
 527 286 l 1,20,-1
 494 229 l 1,18,-1
527 414 m 1,21,-1
 560 471 l 1,22,-1
 494 471 l 1,23,-1
 527 414 l 1,21,-1
29 165 m 1,24,-1
 136 350 l 1,25,-1
 29 535 l 1,26,-1
 243 535 l 1,27,-1
 350 720 l 1,28,-1
 457 535 l 1,29,-1
 671 535 l 1,30,-1
 564 350 l 1,31,-1
 671 165 l 1,32,-1
 457 165 l 1,33,-1
 350 -20 l 1,34,-1
 243 165 l 1,35,-1
 29 165 l 1,24,-1
EndSplineSet
EndChar

StartChar: percent
Encoding: 37 37 8
Width: 700
GlyphClass: 2
Flags: W
LayerCount: 2
Fore
SplineSet
198 329 m 1,0,-1
 350 65 l 1,1,-1
 395 144 l 1,2,-1
 444 144 l 1,3,-1
 350 -20 l 1,4,-1
 173 286 l 1,5,-1
 198 329 l 1,0,-1
670 165 m 1,6,-1
 317 165 l 1,7,-1
 293 208 l 1,8,-1
 596 208 l 1,9,-1
 551 286 l 1,10,-1
 576 329 l 1,11,-1
 670 165 l 1,6,-1
494 229 m 1,12,-1
 444 229 l 1,13,-1
 596 492 l 1,14,-1
 506 492 l 1,15,-1
 481 535 l 1,16,-1
 670 535 l 1,17,-1
 494 229 l 1,12,-1
350 720 m 1,18,-1
 527 414 l 1,19,-1
 502 371 l 1,20,-1
 350 635 l 1,21,-1
 305 556 l 1,22,-1
 256 556 l 1,23,-1
 350 720 l 1,18,-1
30 535 m 1,24,-1
 383 535 l 1,25,-1
 407 492 l 1,26,-1
 104 492 l 1,27,-1
 149 414 l 1,28,-1
 124 371 l 1,29,-1
 30 535 l 1,24,-1
218 165 m 1,30,-1
 30 165 l 1,31,-1
 206 471 l 1,32,-1
 256 471 l 1,33,-1
 104 208 l 1,34,-1
 194 208 l 1,35,-1
 218 165 l 1,30,-1
EndSplineSet
EndChar

StartChar: ampersand
Encoding: 38 38 9
Width: 700
GlyphClass: 2
Flags: W
LayerCount: 2
Fore
SplineSet
122 376 m 1,0,-1
 30 535 l 1,1,-1
 335 535 l 1,2,-1
 381 455 l 1,3,-1
 168 455 l 1,4,-1
 122 376 l 1,0,-1
214 165 m 1,5,-1
 30 165 l 1,6,-1
 182 430 l 1,7,-1
 274 430 l 1,8,-1
 168 245 l 1,9,-1
 214 165 l 1,5,-1
442 139 m 1,10,-1
 350 -20 l 1,11,-1
 197 245 l 1,12,-1
 243 324 l 1,13,-1
 350 139 l 1,14,-1
 442 139 l 1,10,-1
578 324 m 1,15,-1
 670 165 l 1,16,-1
 365 165 l 1,17,-1
 319 245 l 1,18,-1
 532 245 l 1,19,-1
 578 324 l 1,15,-1
486 535 m 1,20,-1
 670 535 l 1,21,-1
 518 270 l 1,22,-1
 426 270 l 1,23,-1
 532 455 l 1,24,-1
 486 535 l 1,20,-1
258 561 m 1,25,-1
 350 720 l 1,26,-1
 503 455 l 1,27,-1
 457 376 l 1,28,-1
 350 561 l 1,29,-1
 258 561 l 1,25,-1
EndSplineSet
EndChar

StartChar: quotesingle
Encoding: 39 39 10
Width: 700
GlyphClass: 2
Flags: W
LayerCount: 2
Fore
SplineSet
313 329 m 1,0,-1
 219 165 l 1,1,-1
 30 165 l 1,2,-1
 124 329 l 1,3,-1
 313 329 l 1,0,-1
350 -20 m 1,4,-1
 256 144 l 1,5,-1
 350 307 l 1,6,-1
 444 144 l 1,7,-1
 350 -20 l 1,4,-1
481 165 m 1,8,-1
 387 329 l 1,9,-1
 576 329 l 1,10,-1
 670 165 l 1,11,-1
 481 165 l 1,8,-1
576 371 m 1,12,-1
 387 371 l 1,13,-1
 481 535 l 1,14,-1
 670 535 l 1,15,-1
 576 371 l 1,12,-1
350 393 m 1,16,-1
 256 556 l 1,17,-1
 350 720 l 1,18,-1
 444 556 l 1,19,-1
 350 393 l 1,16,-1
124 371 m 1,20,-1
 30 535 l 1,21,-1
 219 535 l 1,22,-1
 313 371 l 1,23,-1
 124 371 l 1,20,-1
EndSplineSet
EndChar

StartChar: parenleft
Encoding: 40 40 11
Width: 700
GlyphClass: 2
Flags: W
LayerCount: 2
Fore
SplineSet
490 478 m 1,0,-1
 440 393 l 1,1,-1
 301 635 l 1,2,-1
 350 720 l 1,3,-1
 490 478 l 1,0,-1
309 535 m 1,4,-1
 358 450 l 1,5,-1
 79 450 l 1,6,-1
 29 535 l 1,7,-1
 309 535 l 1,4,-1
268 407 m 1,8,-1
 128 165 l 1,9,-1
 29 165 l 1,10,-1
 169 407 l 1,11,-1
 268 407 l 1,8,-1
260 307 m 1,12,-1
 399 65 l 1,13,-1
 350 -20 l 1,14,-1
 210 222 l 1,15,-1
 260 307 l 1,12,-1
391 165 m 1,16,-1
 342 250 l 1,17,-1
 621 250 l 1,18,-1
 671 165 l 1,19,-1
 391 165 l 1,16,-1
572 535 m 1,20,-1
 671 535 l 1,21,-1
 531 293 l 1,22,-1
 432 293 l 1,23,-1
 572 535 l 1,20,-1
EndSplineSet
EndChar

StartChar: parenright
Encoding: 41 41 12
Width: 700
GlyphClass: 2
Flags: W
LayerCount: 2
Fore
SplineSet
305 265 m 1,0,-1
 395 265 l 1,1,-1
 451 363 l 1,2,-1
 406 441 l 1,3,-1
 294 441 l 1,4,-1
 249 363 l 1,5,-1
 305 265 l 1,0,-1
199 458 m 1,6,-1
 396 458 l 1,7,-1
 356 528 l 1,8,-1
 53 528 l 1,9,-1
 146 367 l 1,10,-1
 199 458 l 1,6,-1
239 346 m 1,11,-1
 199 276 l 1,12,-1
 350 14 l 1,13,-1
 443 174 l 1,14,-1
 338 174 l 1,15,-1
 239 346 l 1,11,-1
35 174 m 1,16,-1
 136 350 l 1,17,-1
 24 544 l 1,18,-1
 249 544 l 1,19,-1
 350 720 l 1,20,-1
 451 544 l 1,21,-1
 676 544 l 1,22,-1
 564 350 l 1,23,-1
 665 174 l 1,24,-1
 462 174 l 1,25,-1
 350 -20 l 1,26,-1
 238 174 l 1,27,-1
 35 174 l 1,16,-1
514 437 m 1,28,-1
 415 265 l 1,29,-1
 495 265 l 1,30,-1
 647 528 l 1,31,-1
 461 528 l 1,32,-1
 514 437 l 1,28,-1
EndSplineSet
EndChar

StartChar: asterisk
Encoding: 42 42 13
Width: 746
GlyphClass: 2
Flags: W
LayerCount: 2
Fore
SplineSet
348 131 m 1,0,-1
 348 262 l 1,1,2
 211 270 211 270 116 370.5 c 128,-1,3
 21 471 21 471 21 609 c 2,4,-1
 21 696 l 1,5,-1
 65 696 l 1,6,-1
 65 609 l 2,7,8
 65 489 65 489 147 401.5 c 128,-1,9
 229 314 229 314 348 305 c 1,10,-1
 348 371 l 1,11,12
 256 379 256 379 193 447.5 c 128,-1,13
 130 516 130 516 130 609 c 2,14,-1
 130 696 l 1,15,-1
 174 696 l 1,16,-1
 174 609 l 2,17,18
 174 534 174 534 224 478.5 c 128,-1,19
 274 423 274 423 348 415 c 1,20,-1
 348 481 l 1,21,22
 301 489 301 489 270 525 c 128,-1,23
 239 561 239 561 239 609 c 2,24,-1
 239 696 l 1,25,-1
 283 696 l 1,26,-1
 283 609 l 2,27,28
 283 579 283 579 301 556 c 128,-1,29
 319 533 319 533 348 525 c 1,30,-1
 348 696 l 1,31,-1
 391 696 l 1,32,-1
 391 525 l 1,33,34
 420 533 420 533 438.5 556 c 128,-1,35
 457 579 457 579 457 609 c 2,36,-1
 457 696 l 1,37,-1
 500 696 l 1,38,-1
 500 609 l 2,39,40
 500 561 500 561 469 525 c 128,-1,41
 438 489 438 489 391 481 c 1,42,-1
 391 415 l 1,43,44
 465 423 465 423 515.5 478.5 c 128,-1,45
 566 534 566 534 566 609 c 2,46,-1
 566 696 l 1,47,-1
 609 696 l 1,48,-1
 609 609 l 2,49,50
 609 516 609 516 546 447.5 c 128,-1,51
 483 379 483 379 391 371 c 1,52,-1
 391 305 l 1,53,54
 510 314 510 314 592 401.5 c 128,-1,55
 674 489 674 489 674 609 c 2,56,-1
 674 696 l 1,57,-1
 718 696 l 1,58,-1
 718 609 l 2,59,60
 718 471 718 471 623.5 370.5 c 128,-1,61
 529 270 529 270 391 262 c 1,62,-1
 391 131 l 1,63,-1
 457 131 l 1,64,-1
 457 87 l 1,65,-1
 522 87 l 1,66,-1
 522 44 l 1,67,-1
 587 44 l 1,68,-1
 587 0 l 1,69,-1
 152 0 l 1,70,-1
 152 44 l 1,71,-1
 217 44 l 1,72,-1
 217 87 l 1,73,-1
 283 87 l 1,74,-1
 283 131 l 1,75,-1
 348 131 l 1,0,-1
EndSplineSet
EndChar

StartChar: plus
Encoding: 43 43 14
Width: 980
GlyphClass: 2
Flags: W
LayerCount: 2
Fore
SplineSet
510 139 m 1,0,1
 664 131 664 131 750 0 c 1,2,-1
 610 0 l 1,3,4
 560 50 560 50 490 50 c 128,-1,5
 420 50 420 50 370 0 c 1,6,-1
 230 0 l 1,7,8
 316 131 316 131 470 139 c 1,9,-1
 470 270 l 1,10,-1
 76 468 l 2,11,12
 30 489 30 489 30 540 c 2,13,-1
 30 700 l 1,14,-1
 70 700 l 1,15,-1
 70 540 l 2,16,17
 70 515 70 515 92 504 c 2,18,-1
 470 315 l 1,19,-1
 470 360 l 1,20,-1
 176 508 l 2,21,22
 130 529 130 529 130 580 c 2,23,-1
 130 700 l 1,24,-1
 170 700 l 1,25,-1
 170 580 l 2,26,27
 170 555 170 555 192 544 c 2,28,-1
 470 405 l 1,29,-1
 470 450 l 1,30,-1
 276 548 l 2,31,32
 230 569 230 569 230 620 c 2,33,-1
 230 700 l 1,34,-1
 270 700 l 1,35,-1
 270 620 l 2,36,37
 270 595 270 595 292 584 c 2,38,-1
 470 495 l 1,39,-1
 470 540 l 1,40,-1
 376 588 l 2,41,42
 330 609 330 609 330 660 c 2,43,-1
 330 700 l 1,44,-1
 370 700 l 1,45,-1
 370 660 l 2,46,47
 370 635 370 635 392 624 c 2,48,-1
 470 585 l 1,49,-1
 470 740 l 1,50,-1
 510 740 l 1,51,-1
 510 585 l 1,52,-1
 588 624 l 2,53,54
 610 635 610 635 610 660 c 2,55,-1
 610 700 l 1,56,-1
 650 700 l 1,57,-1
 650 660 l 2,58,59
 650 609 650 609 604 588 c 2,60,-1
 510 540 l 1,61,-1
 510 495 l 1,62,-1
 688 584 l 2,63,64
 710 595 710 595 710 620 c 2,65,-1
 710 700 l 1,66,-1
 750 700 l 1,67,-1
 750 620 l 2,68,69
 750 569 750 569 704 548 c 2,70,-1
 510 450 l 1,71,-1
 510 405 l 1,72,-1
 788 544 l 2,73,74
 810 555 810 555 810 580 c 2,75,-1
 810 700 l 1,76,-1
 850 700 l 1,77,-1
 850 580 l 2,78,79
 850 529 850 529 804 508 c 2,80,-1
 510 360 l 1,81,-1
 510 315 l 1,82,-1
 888 504 l 2,83,84
 910 515 910 515 910 540 c 2,85,-1
 910 700 l 1,86,-1
 950 700 l 1,87,-1
 950 540 l 2,88,89
 950 489 950 489 904 468 c 2,90,-1
 510 270 l 1,91,-1
 510 139 l 1,0,1
EndSplineSet
EndChar

StartChar: comma
Encoding: 44 44 15
Width: 650
GlyphClass: 2
Flags: W
LayerCount: 2
Fore
SplineSet
392 319 m 2,0,1
 392 308 392 308 381 308 c 128,-1,2
 370 308 370 308 370 319 c 2,3,-1
 370 634 l 2,4,5
 370 652 370 652 365 689.5 c 132,-1,6
 360 727 360 727 327 728 c 4,7,8
 294.024617616 727.142024707 294.024617616 727.142024707 287.5 689.5 c 128,-1,9
 281 652 281 652 281 634 c 2,10,-1
 281 319 l 2,11,12
 281 308 281 308 270 308 c 128,-1,13
 259 308 259 308 259 319 c 2,14,-1
 259 634 l 2,15,16
 259 652 259 652 246 665 c 128,-1,17
 233 678 233 678 214 678 c 0,18,19
 196 678 196 678 183 665 c 128,-1,20
 170 652 170 652 170 634 c 2,21,-1
 170 405 l 1,22,23
 150 418 150 418 125 418 c 0,24,25
 77 418 77 418 53 375 c 1,26,27
 114 339 114 339 114 269 c 2,28,-1
 114 233 l 2,29,30
 114 146 114 146 176 84 c 128,-1,31
 238 22 238 22 325 22 c 0,32,33
 413 22 413 22 475 84 c 128,-1,34
 537 146 537 146 537 233 c 2,35,-1
 537 269 l 2,36,37
 537 339 537 339 597 375 c 1,38,39
 575 418 575 418 526 418 c 0,40,41
 501 418 501 418 481 405 c 1,42,-1
 481 634 l 2,43,44
 481 652 481 652 468 665 c 128,-1,45
 455 678 455 678 437 678 c 0,46,47
 418 678 418 678 405 665 c 128,-1,48
 392 652 392 652 392 634 c 2,49,-1
 392 319 l 2,0,1
92 269 m 2,50,51
 92 302 92 302 74 327.5 c 128,-1,52
 56 353 56 353 25 364 c 1,53,54
 35 398 35 398 62.5 419 c 128,-1,55
 90 440 90 440 125 440 c 0,56,57
 133 440 133 440 147 438 c 1,58,-1
 147 634 l 2,59,60
 147 661 147 661 166.5 680.5 c 128,-1,61
 186 700 186 700 214 700 c 0,62,63
 250 700 250 700 270 671 c 1,64,65
 270 748 270 748 326 749 c 0,66,67
 380 749 380 749 381 671 c 1,68,69
 401 700 401 700 437 700 c 0,70,71
 464 700 464 700 483.5 680.5 c 128,-1,72
 503 661 503 661 503 634 c 2,73,-1
 503 438 l 1,74,75
 519 440 519 440 526 440 c 0,76,77
 561 440 561 440 588.5 419 c 128,-1,78
 616 398 616 398 626 364 c 1,79,80
 595 353 595 353 577 327.5 c 128,-1,81
 559 302 559 302 559 269 c 2,82,-1
 559 233 l 2,83,84
 559 137 559 137 490.5 68.5 c 128,-1,85
 422 0 422 0 325 0 c 0,86,87
 229 0 229 0 160.5 68.5 c 128,-1,88
 92 137 92 137 92 233 c 2,89,-1
 92 269 l 2,50,51
EndSplineSet
EndChar

StartChar: hyphen
Encoding: 45 45 16
Width: 650
GlyphClass: 2
Flags: W
LayerCount: 2
Fore
SplineSet
325 270 m 128,-1,1
 308 270 308 270 295.5 257.5 c 128,-1,2
 283 245 283 245 283 227 c 0,3,4
 283 210 283 210 295.5 197.5 c 128,-1,5
 308 185 308 185 325 185 c 128,-1,6
 342 185 342 185 354.5 197.5 c 128,-1,7
 367 210 367 210 367 227 c 0,8,9
 367 245 367 245 354.5 257.5 c 128,-1,0
 342 270 342 270 325 270 c 128,-1,1
395 227 m 0,10,11
 395 203 395 203 378 183 c 1,12,13
 437 193 437 193 487 227 c 1,14,15
 438 262 438 262 378 272 c 1,16,17
 395 252 395 252 395 227 c 0,10,11
255 227 m 0,18,19
 255 252 255 252 272 272 c 1,20,21
 212 262 212 262 163 227 c 1,22,23
 213 193 213 193 272 183 c 1,24,25
 255 203 255 203 255 227 c 0,18,19
521 227 m 1,26,27
 433 158 433 158 325 158 c 0,28,29
 218 158 218 158 129 228 c 1,30,31
 219 297 219 297 325 297 c 0,32,33
 432 297 432 297 521 227 c 1,26,27
392 419 m 2,34,35
 392 408 392 408 381 408 c 128,-1,36
 370 408 370 408 370 419 c 2,37,-1
 370 634 l 2,38,39
 370 652 370 652 365.5 683.5 c 128,-1,40
 361 715 361 715 325 715 c 0,41,42
 293.19689925 715.017312794 293.19689925 715.017312794 287 683 c 0,43,44
 281 652 281 652 281 634 c 2,45,-1
 281 419 l 2,46,47
 281 408 281 408 270 408 c 128,-1,48
 259 408 259 408 259 419 c 2,49,-1
 259 634 l 2,50,51
 259 652 259 652 246 665 c 128,-1,52
 233 678 233 678 214 678 c 0,53,54
 196 678 196 678 183 665 c 128,-1,55
 170 652 170 652 170 634 c 2,56,-1
 170 405 l 1,57,58
 150 418 150 418 125 418 c 0,59,60
 77 418 77 418 53 375 c 1,61,62
 114 339 114 339 114 269 c 2,63,-1
 114 233 l 2,64,65
 114 146 114 146 176 84 c 128,-1,66
 238 22 238 22 325 22 c 0,67,68
 413 22 413 22 475 84 c 128,-1,69
 537 146 537 146 537 233 c 2,70,-1
 537 269 l 2,71,72
 537 339 537 339 597 375 c 1,73,74
 575 418 575 418 526 418 c 0,75,76
 501 418 501 418 481 405 c 1,77,-1
 481 634 l 2,78,79
 481 652 481 652 468 665 c 128,-1,80
 455 678 455 678 437 678 c 0,81,82
 418 678 418 678 405 665 c 128,-1,83
 392 652 392 652 392 634 c 2,84,-1
 392 419 l 2,34,35
92 269 m 2,85,86
 92 302 92 302 74 327.5 c 128,-1,87
 56 353 56 353 25 364 c 1,88,89
 35 398 35 398 62.5 419 c 128,-1,90
 90 440 90 440 125 440 c 0,91,92
 133 440 133 440 147 438 c 1,93,-1
 147 634 l 2,94,95
 147 661 147 661 166.5 680.5 c 128,-1,96
 186 700 186 700 214 700 c 0,97,98
 250 700 250 700 270 671 c 1,99,100
 275 733 275 733 327 733 c 128,-1,101
 379 733 379 733 381 671 c 1,102,103
 401 700 401 700 437 700 c 0,104,105
 464 700 464 700 483.5 680.5 c 128,-1,106
 503 661 503 661 503 634 c 2,107,-1
 503 438 l 1,108,109
 519 440 519 440 526 440 c 0,110,111
 561 440 561 440 588.5 419 c 128,-1,112
 616 398 616 398 626 364 c 1,113,114
 595 353 595 353 577 327.5 c 128,-1,115
 559 302 559 302 559 269 c 2,116,-1
 559 233 l 2,117,118
 559 137 559 137 490.5 68.5 c 128,-1,119
 422 0 422 0 325 0 c 0,120,121
 229 0 229 0 160.5 68.5 c 128,-1,122
 92 137 92 137 92 233 c 2,123,-1
 92 269 l 2,85,86
EndSplineSet
EndChar

StartChar: period
Encoding: 46 46 17
Width: 156
GlyphClass: 2
Flags: W
LayerCount: 2
Fore
SplineSet
25 482 m 1,0,-1
 131 482 l 1,1,-1
 131 0 l 1,2,-1
 25 0 l 1,3,-1
 25 482 l 1,0,-1
78 509 m 1,4,5
 60 520 60 520 48.5 540 c 128,-1,6
 37 560 37 560 38 580 c 0,7,8
 39 599 39 599 50.5 618.5 c 128,-1,9
 62 638 62 638 64 648 c 0,10,11
 72 675 72 675 60 700 c 1,12,13
 84 688 84 688 101 660.5 c 128,-1,14
 118 633 118 633 120 604 c 0,15,16
 127 537 127 537 78 509 c 1,4,5
EndSplineSet
EndChar

StartChar: slash
Encoding: 47 47 18
Width: 332
GlyphClass: 2
Flags: W
LayerCount: 2
Fore
SplineSet
254 509 m 1,0,1
 236 520 236 520 224.5 540 c 128,-1,2
 213 560 213 560 214 580 c 0,3,4
 215 599 215 599 226.5 618.5 c 128,-1,5
 238 638 238 638 240 648 c 0,6,7
 248 675 248 675 236 700 c 1,8,9
 260 688 260 688 277 660.5 c 128,-1,10
 294 633 294 633 296 604 c 0,11,12
 303 537 303 537 254 509 c 1,0,1
78 509 m 1,13,14
 60 520 60 520 48.5 540 c 128,-1,15
 37 560 37 560 38 580 c 0,16,17
 39 599 39 599 50.5 618.5 c 128,-1,18
 62 638 62 638 64 648 c 0,19,20
 72 675 72 675 60 700 c 1,21,22
 84 688 84 688 101 660.5 c 128,-1,23
 118 633 118 633 120 604 c 0,24,25
 127 537 127 537 78 509 c 1,13,14
201 482 m 1,26,-1
 307 482 l 1,27,-1
 307 0 l 1,28,-1
 201 0 l 1,29,-1
 201 482 l 1,26,-1
25 482 m 1,30,-1
 131 482 l 1,31,-1
 131 0 l 1,32,-1
 25 0 l 1,33,-1
 25 482 l 1,30,-1
EndSplineSet
EndChar

StartChar: zero
Encoding: 48 48 19
Width: 332
GlyphClass: 2
Flags: W
LayerCount: 2
Fore
SplineSet
258 648 m 1,0,1
 256 633 256 633 245.5 612 c 128,-1,2
 235 591 235 591 234 579 c 0,3,4
 233 548 233 548 254 532 c 1,5,6
 282 548 282 548 277 602 c 0,7,8
 272 640 272 640 258 648 c 1,0,1
254 509 m 1,9,10
 236 520 236 520 224.5 540 c 128,-1,11
 213 560 213 560 214 580 c 0,12,13
 215 599 215 599 226.5 618.5 c 128,-1,14
 238 638 238 638 240 648 c 0,15,16
 248 675 248 675 236 700 c 1,17,18
 260 688 260 688 277 660.5 c 128,-1,19
 294 633 294 633 296 604 c 0,20,21
 303 537 303 537 254 509 c 1,9,10
78 509 m 1,22,23
 60 520 60 520 48.5 540 c 128,-1,24
 37 560 37 560 38 580 c 0,25,26
 39 599 39 599 50.5 618.5 c 128,-1,27
 62 638 62 638 64 648 c 0,28,29
 72 675 72 675 60 700 c 1,30,31
 84 688 84 688 101 660.5 c 128,-1,32
 118 633 118 633 120 604 c 0,33,34
 127 537 127 537 78 509 c 1,22,23
201 482 m 1,35,-1
 307 482 l 1,36,-1
 307 0 l 1,37,-1
 201 0 l 1,38,-1
 201 482 l 1,35,-1
25 482 m 1,39,-1
 131 482 l 1,40,-1
 131 0 l 1,41,-1
 25 0 l 1,42,-1
 25 482 l 1,39,-1
82 648 m 1,43,44
 81 633 81 633 70 612 c 128,-1,45
 59 591 59 591 58 579 c 0,46,47
 57 548 57 548 78 532 c 1,48,49
 106 548 106 548 101 602 c 0,50,51
 96 640 96 640 82 648 c 1,43,44
221 462 m 1,52,-1
 221 20 l 1,53,-1
 287 20 l 1,54,-1
 287 462 l 1,55,-1
 221 462 l 1,52,-1
45 462 m 1,56,-1
 45 20 l 1,57,-1
 111 20 l 1,58,-1
 111 462 l 1,59,-1
 45 462 l 1,56,-1
EndSplineSet
EndChar

StartChar: two
Encoding: 50 50 20
Width: 796
GlyphClass: 2
Flags: W
LayerCount: 2
Fore
SplineSet
398 522 m 1,0,1
 398 594 398 594 449 645 c 128,-1,2
 500 696 500 696 572 696 c 128,-1,3
 644 696 644 696 695 645 c 128,-1,4
 746 594 746 594 746 522 c 2,5,-1
 746 0 l 1,6,-1
 50 0 l 1,7,-1
 50 522 l 2,8,9
 50 594 50 594 101 645 c 128,-1,10
 152 696 152 696 224 696 c 128,-1,11
 296 696 296 696 347 645 c 128,-1,12
 398 594 398 594 398 522 c 1,0,1
EndSplineSet
EndChar

StartChar: three
Encoding: 51 51 21
Width: 811
GlyphClass: 2
Flags: W
LayerCount: 2
Fore
SplineSet
426 508 m 2,0,-1
 426 46 l 1,1,-1
 703 46 l 1,2,-1
 703 508 l 2,3,4
 703 565 703 565 662.5 605.5 c 128,-1,5
 622 646 622 646 565 646 c 0,6,7
 507 646 507 646 466.5 605.5 c 128,-1,8
 426 565 426 565 426 508 c 2,0,-1
103 508 m 2,9,-1
 103 46 l 1,10,-1
 380 46 l 1,11,-1
 380 508 l 2,12,13
 380 565 380 565 339.5 605.5 c 128,-1,14
 299 646 299 646 242 646 c 0,15,16
 184 646 184 646 143.5 605.5 c 128,-1,17
 103 565 103 565 103 508 c 2,9,-1
749 508 m 2,18,-1
 749 0 l 1,19,-1
 57 0 l 1,20,-1
 57 508 l 2,21,22
 57 584 57 584 111.5 638 c 128,-1,23
 166 692 166 692 242 692 c 0,24,25
 293 692 293 692 336.5 666 c 128,-1,26
 380 640 380 640 404 596 c 1,27,28
 428 640 428 640 471 666 c 128,-1,29
 514 692 514 692 566 692 c 0,30,31
 642 692 642 692 695.5 638 c 128,-1,32
 749 584 749 584 749 508 c 2,18,-1
EndSplineSet
EndChar

StartChar: four
Encoding: 52 52 22
Width: 802
GlyphClass: 2
Flags: W
LayerCount: 2
Fore
SplineSet
147 138 m 1,0,-1
 331 138 l 1,1,-1
 331 115 l 1,2,-1
 147 115 l 1,3,-1
 147 138 l 1,0,-1
331 231 m 1,4,-1
 147 231 l 1,5,-1
 147 208 l 1,6,-1
 331 208 l 1,7,-1
 331 231 l 1,4,-1
147 323 m 1,8,-1
 331 323 l 1,9,-1
 331 300 l 1,10,-1
 147 300 l 1,11,-1
 147 323 l 1,8,-1
331 415 m 1,12,-1
 147 415 l 1,13,-1
 147 392 l 1,14,-1
 331 392 l 1,15,-1
 331 415 l 1,12,-1
147 508 m 1,16,-1
 331 508 l 1,17,-1
 331 484 l 1,18,-1
 147 484 l 1,19,-1
 147 508 l 1,16,-1
470 508 m 1,20,-1
 654 508 l 1,21,-1
 654 484 l 1,22,-1
 470 484 l 1,23,-1
 470 508 l 1,20,-1
470 323 m 1,24,-1
 654 323 l 1,25,-1
 654 300 l 1,26,-1
 470 300 l 1,27,-1
 470 323 l 1,24,-1
470 231 m 1,28,-1
 654 231 l 1,29,-1
 654 208 l 1,30,-1
 470 208 l 1,31,-1
 470 231 l 1,28,-1
470 138 m 1,32,-1
 654 138 l 1,33,-1
 654 115 l 1,34,-1
 470 115 l 1,35,-1
 470 138 l 1,32,-1
470 415 m 1,36,-1
 654 415 l 1,37,-1
 654 392 l 1,38,-1
 470 392 l 1,39,-1
 470 415 l 1,36,-1
420 508 m 2,40,-1
 420 46 l 1,41,-1
 697 46 l 1,42,-1
 697 508 l 2,43,44
 697 565 697 565 656.5 605.5 c 128,-1,45
 616 646 616 646 558 646 c 0,46,47
 501 646 501 646 460.5 605.5 c 128,-1,48
 420 565 420 565 420 508 c 2,40,-1
97 508 m 2,49,-1
 97 46 l 1,50,-1
 374 46 l 1,51,-1
 374 508 l 2,52,53
 374 565 374 565 333.5 605.5 c 128,-1,54
 293 646 293 646 235 646 c 0,55,56
 178 646 178 646 137.5 605.5 c 128,-1,57
 97 565 97 565 97 508 c 2,49,-1
743 508 m 2,58,-1
 743 0 l 1,59,-1
 51 0 l 1,60,-1
 51 508 l 2,61,62
 51 584 51 584 105 638 c 128,-1,63
 159 692 159 692 235 692 c 0,64,65
 287 692 287 692 330.5 666 c 128,-1,66
 374 640 374 640 398 596 c 1,67,68
 422 639 422 639 465 665.5 c 128,-1,69
 508 692 508 692 559 692 c 0,70,71
 635 692 635 692 689 638 c 128,-1,72
 743 584 743 584 743 508 c 2,58,-1
EndSplineSet
EndChar

StartChar: five
Encoding: 53 53 23
Width: 796
GlyphClass: 2
Flags: W
LayerCount: 2
Fore
SplineSet
132 143 m 1,0,-1
 132 110 l 1,1,-1
 335 110 l 1,2,-1
 335 143 l 1,3,-1
 132 143 l 1,0,-1
335 236 m 1,4,-1
 132 236 l 1,5,-1
 132 203 l 1,6,-1
 335 203 l 1,7,-1
 335 236 l 1,4,-1
132 328 m 1,8,-1
 132 295 l 1,9,-1
 335 295 l 1,10,-1
 335 328 l 1,11,-1
 132 328 l 1,8,-1
335 420 m 1,12,-1
 132 420 l 1,13,-1
 132 387 l 1,14,-1
 335 387 l 1,15,-1
 335 420 l 1,12,-1
132 513 m 1,16,-1
 132 479 l 1,17,-1
 335 479 l 1,18,-1
 335 513 l 1,19,-1
 132 513 l 1,16,-1
461 513 m 1,20,-1
 461 479 l 1,21,-1
 664 479 l 1,22,-1
 664 513 l 1,23,-1
 461 513 l 1,20,-1
461 328 m 1,24,-1
 461 295 l 1,25,-1
 664 295 l 1,26,-1
 664 328 l 1,27,-1
 461 328 l 1,24,-1
461 236 m 1,28,-1
 461 203 l 1,29,-1
 664 203 l 1,30,-1
 664 236 l 1,31,-1
 461 236 l 1,28,-1
461 143 m 1,32,-1
 461 110 l 1,33,-1
 664 110 l 1,34,-1
 664 143 l 1,35,-1
 461 143 l 1,32,-1
461 420 m 1,36,-1
 461 387 l 1,37,-1
 664 387 l 1,38,-1
 664 420 l 1,39,-1
 461 420 l 1,36,-1
398 522 m 1,40,41
 398 594 398 594 449 645 c 128,-1,42
 500 696 500 696 572 696 c 128,-1,43
 644 696 644 696 695 645 c 128,-1,44
 746 594 746 594 746 522 c 2,45,-1
 746 0 l 1,46,-1
 50 0 l 1,47,-1
 50 522 l 2,48,49
 50 594 50 594 101 645 c 128,-1,50
 152 696 152 696 224 696 c 128,-1,51
 296 696 296 696 347 645 c 128,-1,52
 398 594 398 594 398 522 c 1,40,41
EndSplineSet
EndChar

StartChar: six
Encoding: 54 54 24
Width: 853
GlyphClass: 2
Flags: W
LayerCount: 2
Fore
SplineSet
163 51 m 1,0,1
 175 39 175 39 175 23 c 0,2,3
 175 6 175 6 163.5 -5.5 c 128,-1,4
 152 -17 152 -17 135 -17 c 128,-1,5
 118 -17 118 -17 106.5 -5.5 c 128,-1,6
 95 6 95 6 95 23 c 0,7,8
 95 39 95 39 107 51 c 1,9,10
 121 58 121 58 121 72 c 0,11,12
 121 81 121 81 115 87 c 128,-1,13
 109 93 109 93 100 94 c 2,14,-1
 36 94 l 1,15,-1
 36 178 l 1,16,-1
 78 178 l 1,17,-1
 78 517 l 1,18,-1
 36 517 l 1,19,-1
 36 602 l 1,20,-1
 100 602 l 2,21,22
 108 602 108 602 114.5 608.5 c 128,-1,23
 121 615 121 615 121 624 c 0,24,25
 121 639 121 639 107 644 c 1,26,27
 95 656 95 656 95 672 c 0,28,29
 95 689 95 689 106.5 700.5 c 128,-1,30
 118 712 118 712 135 712 c 128,-1,31
 152 712 152 712 163.5 700.5 c 128,-1,32
 175 689 175 689 175 672 c 0,33,34
 175 656 175 656 163 644 c 1,35,36
 149 639 149 639 149 624 c 0,37,38
 149 615 149 615 155 608.5 c 128,-1,39
 161 602 161 602 170 602 c 2,40,-1
 234 602 l 1,41,-1
 234 517 l 1,42,-1
 191 517 l 1,43,-1
 191 489 l 1,44,-1
 417 489 l 1,45,-1
 643 489 l 1,46,-1
 643 517 l 1,47,-1
 601 517 l 1,48,-1
 601 602 l 1,49,-1
 664 602 l 2,50,51
 673 602 673 602 679 608.5 c 128,-1,52
 685 615 685 615 685 624 c 0,53,54
 685 639 685 639 671 644 c 1,55,56
 660 655 660 655 660 672 c 128,-1,57
 660 689 660 689 671.5 700.5 c 128,-1,58
 683 712 683 712 700 712 c 128,-1,59
 717 712 717 712 728 700.5 c 128,-1,60
 739 689 739 689 739 672 c 128,-1,61
 739 655 739 655 728 644 c 1,62,63
 714 639 714 639 714 624 c 0,64,65
 714 615 714 615 720 608.5 c 128,-1,66
 726 602 726 602 735 602 c 2,67,-1
 798 602 l 1,68,-1
 798 517 l 1,69,-1
 756 517 l 1,70,-1
 756 178 l 1,71,-1
 798 178 l 1,72,-1
 798 94 l 1,73,-1
 735 94 l 2,74,75
 714 92 714 92 714 72 c 0,76,77
 714 57 714 57 728 51 c 1,78,79
 739 40 739 40 739 23 c 128,-1,80
 739 6 739 6 727.5 -5.5 c 128,-1,81
 716 -17 716 -17 700 -17 c 0,82,83
 683 -17 683 -17 671.5 -5.5 c 128,-1,84
 660 6 660 6 660 23 c 128,-1,85
 660 40 660 40 671 51 c 1,86,87
 685 57 685 57 685 72 c 0,88,89
 685 92 685 92 664 94 c 2,90,-1
 601 94 l 1,91,-1
 601 178 l 1,92,-1
 643 178 l 1,93,-1
 643 207 l 1,94,-1
 417 207 l 1,95,-1
 191 207 l 1,96,-1
 191 178 l 1,97,-1
 234 178 l 1,98,-1
 234 94 l 1,99,-1
 170 94 l 2,100,101
 149 92 149 92 149 72 c 0,102,103
 149 57 149 57 163 51 c 1,0,1
191 461 m 1,104,-1
 191 235 l 1,105,-1
 643 235 l 1,106,-1
 643 461 l 1,107,-1
 191 461 l 1,104,-1
784 164 m 1,108,-1
 615 164 l 1,109,-1
 615 108 l 1,110,-1
 784 108 l 1,111,-1
 784 164 l 1,108,-1
742 517 m 1,112,-1
 657 517 l 1,113,-1
 657 178 l 1,114,-1
 742 178 l 1,115,-1
 742 517 l 1,112,-1
784 588 m 1,116,-1
 615 588 l 1,117,-1
 615 531 l 1,118,-1
 784 531 l 1,119,-1
 784 588 l 1,116,-1
50 164 m 1,120,-1
 50 108 l 1,121,-1
 220 108 l 1,122,-1
 220 164 l 1,123,-1
 50 164 l 1,120,-1
92 517 m 1,124,-1
 92 178 l 1,125,-1
 177 178 l 1,126,-1
 177 517 l 1,127,-1
 92 517 l 1,124,-1
50 588 m 1,128,-1
 50 531 l 1,129,-1
 220 531 l 1,130,-1
 220 588 l 1,131,-1
 50 588 l 1,128,-1
EndSplineSet
EndChar

StartChar: seven
Encoding: 55 55 25
Width: 647
GlyphClass: 2
Flags: W
LayerCount: 2
Fore
SplineSet
365 518 m 2,0,1
 365 508 365 508 323 508 c 128,-1,2
 281 508 281 508 281 518 c 2,3,-1
 281 538 l 1,4,5
 292 547 292 547 297 558 c 1,6,-1
 235 565 l 1,7,-1
 109 502 l 1,8,-1
 411 469 l 1,9,-1
 538 531 l 1,10,-1
 353 552 l 1,11,12
 356 547 356 547 365 538 c 1,13,-1
 365 518 l 2,0,1
464 199 m 2,14,15
 461 198 461 198 460.5 199 c 128,-1,16
 460 200 460 200 460 206 c 2,17,-1
 466 245 l 2,18,19
 466 249 466 249 470 252 c 2,20,-1
 480 256 l 2,21,22
 504 268 504 268 504 322 c 0,23,24
 505 341 505 341 503.5 359 c 128,-1,25
 502 377 502 377 495 374 c 2,26,-1
 488 371 l 2,27,28
 480 366 480 366 475.5 372 c 128,-1,29
 471 378 471 378 471 394 c 0,30,31
 471 428 471 428 481 433 c 0,32,33
 482 434 482 434 482.5 432.5 c 128,-1,34
 483 431 483 431 482.5 429 c 128,-1,35
 482 427 482 427 483 424 c 0,36,37
 483 422 483 422 484.5 420.5 c 128,-1,38
 486 419 486 419 487 420 c 2,39,-1
 502 427 l 2,40,41
 504 427 504 427 508 428 c 128,-1,42
 512 429 512 429 515.5 421.5 c 128,-1,43
 519 414 519 414 518 398 c 0,44,45
 518 392 518 392 516.5 373 c 128,-1,46
 515 354 515 354 515 341 c 0,47,48
 515 323 515 323 522.5 297.5 c 128,-1,49
 530 272 530 272 530 250 c 128,-1,50
 530 228 530 228 525 226 c 0,51,52
 523 225 523 225 521.5 228 c 128,-1,53
 520 231 520 231 519 237 c 128,-1,54
 518 243 518 243 516.5 249.5 c 128,-1,55
 515 256 515 256 512.5 262.5 c 128,-1,56
 510 269 510 269 508 273 c 256,57,58
 506 277 506 277 503 266 c 0,59,60
 502 265 502 265 497 240 c 2,61,-1
 493 220 l 2,62,63
 492 212 492 212 488 210 c 2,64,-1
 464 199 l 2,14,15
204 308 m 0,65,66
 207 308 207 308 206 304 c 0,67,68
 203 294 203 294 204.5 253.5 c 128,-1,69
 206 213 206 213 200 208 c 0,70,71
 193 196 193 196 174 196 c 0,72,73
 169 198 169 198 171 201 c 0,74,75
 175 218 175 218 173 243 c 0,76,77
 173 292 173 292 179 300 c 0,78,79
 187 310 187 310 204 308 c 0,65,66
195 405 m 2,80,-1
 321 392 l 2,81,82
 332 390 332 390 332 376 c 2,83,-1
 332 347 l 2,84,85
 332 340 332 340 328.5 339 c 128,-1,86
 325 338 325 338 322 331 c 1,87,88
 315 329 315 329 321 277 c 128,-1,89
 327 225 327 225 327 218 c 0,90,91
 325 198 325 198 316 190 c 0,92,93
 310 185 310 185 303 183.5 c 128,-1,94
 296 182 296 182 293 186 c 0,95,96
 292 187 292 187 292 188 c 128,-1,97
 292 189 292 189 292.5 189.5 c 128,-1,98
 293 190 293 190 293.5 193 c 128,-1,99
 294 196 294 196 294.5 200.5 c 128,-1,100
 295 205 295 205 295.5 215 c 128,-1,101
 296 225 296 225 296 238 c 0,102,103
 296 239 296 239 295 250.5 c 128,-1,104
 294 262 294 262 294 279 c 128,-1,105
 294 296 294 296 296 318 c 0,106,107
 296 324 296 324 298 328.5 c 128,-1,108
 300 333 300 333 302.5 334.5 c 128,-1,109
 305 336 305 336 306.5 337.5 c 128,-1,110
 308 339 308 339 308 340 c 0,111,112
 308 344 308 344 301 344 c 2,113,-1
 198 355 l 2,114,115
 169 358 169 358 169 389 c 0,116,117
 169 401 169 401 174 412 c 128,-1,118
 179 423 179 423 185 422 c 0,119,120
 188 422 188 422 188.5 420.5 c 128,-1,121
 189 419 189 419 188.5 417 c 128,-1,122
 188 415 188 415 189 412 c 0,123,124
 189 405 189 405 195 405 c 2,80,-1
84 485 m 1,125,-1
 84 148 l 1,126,-1
 403 113 l 1,127,-1
 403 450 l 1,128,-1
 84 485 l 1,125,-1
378 40 m 1,129,-1
 492 130 l 1,130,-1
 420 94 l 1,131,-1
 378 40 l 1,129,-1
423 118 m 1,132,-1
 563 187 l 1,133,-1
 563 521 l 1,134,-1
 423 453 l 1,135,-1
 423 118 l 1,132,-1
394 94 m 1,136,-1
 116 124 l 1,137,-1
 320 -4 l 1,138,-1
 394 94 l 1,136,-1
69 131 m 2,139,140
 64 133 64 133 64 139 c 2,141,-1
 64 496 l 2,142,143
 64 502 64 502 70 505 c 2,144,-1
 229 584 l 2,145,146
 231 585 231 585 235 585 c 2,147,-1
 303 577 l 2,148,149
 303 578 303 578 303.5 581 c 128,-1,150
 304 584 304 584 304 586 c 0,151,152
 304 614 304 614 287 634 c 0,153,154
 277 647 277 647 277 662 c 0,155,156
 277 680 277 680 290.5 693 c 128,-1,157
 304 706 304 706 323 706 c 128,-1,158
 342 706 342 706 355.5 693 c 128,-1,159
 369 680 369 680 369 662 c 0,160,161
 369 647 369 647 359 634 c 0,162,163
 344 616 344 616 344 587 c 0,164,165
 344 577 344 577 345 573 c 2,166,-1
 574 547 l 2,167,168
 583 545 583 545 583 537 c 2,169,-1
 583 181 l 2,170,171
 583 177 583 177 579 173 c 2,172,-1
 328 -25 l 2,173,174
 321 -29 321 -29 317 -25 c 2,175,-1
 69 131 l 2,139,140
EndSplineSet
EndChar

StartChar: at
Encoding: 64 64 26
Width: 760
GlyphClass: 2
Flags: W
LayerCount: 2
Fore
SplineSet
380 700 m 128,-1,1
 525 700 525 700 627.5 597.5 c 128,-1,2
 730 495 730 495 730 350 c 128,-1,3
 730 205 730 205 627.5 102.5 c 128,-1,4
 525 0 525 0 380 0 c 128,-1,5
 235 0 235 0 132.5 102.5 c 128,-1,6
 30 205 30 205 30 350 c 128,-1,7
 30 495 30 495 132.5 597.5 c 128,-1,0
 235 700 235 700 380 700 c 128,-1,1
EndSplineSet
EndChar

StartChar: A
Encoding: 65 65 27
Width: 760
GlyphClass: 2
Flags: W
LayerCount: 2
Fore
SplineSet
380 671 m 1,0,1
 486 637 486 637 549.5 549.5 c 128,-1,2
 613 462 613 462 613 350 c 128,-1,3
 613 238 613 238 549.5 150.5 c 128,-1,4
 486 63 486 63 380 29 c 1,5,6
 513 29 513 29 607 123 c 128,-1,7
 701 217 701 217 701 350 c 128,-1,8
 701 483 701 483 607 577 c 128,-1,9
 513 671 513 671 380 671 c 1,0,1
380 700 m 128,-1,11
 525 700 525 700 627.5 597.5 c 128,-1,12
 730 495 730 495 730 350 c 128,-1,13
 730 205 730 205 627.5 102.5 c 128,-1,14
 525 0 525 0 380 0 c 128,-1,15
 235 0 235 0 132.5 102.5 c 128,-1,16
 30 205 30 205 30 350 c 128,-1,17
 30 495 30 495 132.5 597.5 c 128,-1,10
 235 700 235 700 380 700 c 128,-1,11
EndSplineSet
EndChar

StartChar: B
Encoding: 66 66 28
Width: 760
GlyphClass: 2
Flags: W
LayerCount: 2
Fore
SplineSet
380 671 m 1,0,1
 497 532 497 532 497 350 c 128,-1,2
 497 168 497 168 380 29 c 1,3,4
 513 29 513 29 607 123 c 128,-1,5
 701 217 701 217 701 350 c 128,-1,6
 701 483 701 483 607 577 c 128,-1,7
 513 671 513 671 380 671 c 1,0,1
380 700 m 128,-1,9
 525 700 525 700 627.5 597.5 c 128,-1,10
 730 495 730 495 730 350 c 128,-1,11
 730 205 730 205 627.5 102.5 c 128,-1,12
 525 0 525 0 380 0 c 128,-1,13
 235 0 235 0 132.5 102.5 c 128,-1,14
 30 205 30 205 30 350 c 128,-1,15
 30 495 30 495 132.5 597.5 c 128,-1,8
 235 700 235 700 380 700 c 128,-1,9
EndSplineSet
EndChar

StartChar: C
Encoding: 67 67 29
Width: 760
GlyphClass: 2
Flags: W
LayerCount: 2
Fore
SplineSet
380 671 m 1,0,-1
 380 29 l 1,1,2
 513 29 513 29 607 123 c 128,-1,3
 701 217 701 217 701 350 c 128,-1,4
 701 483 701 483 607 577 c 128,-1,5
 513 671 513 671 380 671 c 1,0,-1
380 700 m 128,-1,7
 525 700 525 700 627.5 597.5 c 128,-1,8
 730 495 730 495 730 350 c 128,-1,9
 730 205 730 205 627.5 102.5 c 128,-1,10
 525 0 525 0 380 0 c 128,-1,11
 235 0 235 0 132.5 102.5 c 128,-1,12
 30 205 30 205 30 350 c 128,-1,13
 30 495 30 495 132.5 597.5 c 128,-1,6
 235 700 235 700 380 700 c 128,-1,7
EndSplineSet
EndChar

StartChar: D
Encoding: 68 68 30
Width: 760
GlyphClass: 2
Flags: W
LayerCount: 2
Fore
SplineSet
380 671 m 1,0,1
 263 532 263 532 263 350 c 128,-1,2
 263 168 263 168 380 29 c 1,3,4
 513 29 513 29 607 123 c 128,-1,5
 701 217 701 217 701 350 c 128,-1,6
 701 483 701 483 607 577 c 128,-1,7
 513 671 513 671 380 671 c 1,0,1
380 700 m 128,-1,9
 525 700 525 700 627.5 597.5 c 128,-1,10
 730 495 730 495 730 350 c 128,-1,11
 730 205 730 205 627.5 102.5 c 128,-1,12
 525 0 525 0 380 0 c 128,-1,13
 235 0 235 0 132.5 102.5 c 128,-1,14
 30 205 30 205 30 350 c 128,-1,15
 30 495 30 495 132.5 597.5 c 128,-1,8
 235 700 235 700 380 700 c 128,-1,9
EndSplineSet
EndChar

StartChar: E
Encoding: 69 69 31
Width: 760
GlyphClass: 2
Flags: W
LayerCount: 2
Fore
SplineSet
380 671 m 1,0,1
 274 637 274 637 210.5 549.5 c 128,-1,2
 147 462 147 462 147 350 c 128,-1,3
 147 238 147 238 210.5 150.5 c 128,-1,4
 274 63 274 63 380 29 c 1,5,6
 513 29 513 29 607 123 c 128,-1,7
 701 217 701 217 701 350 c 128,-1,8
 701 483 701 483 607 577 c 128,-1,9
 513 671 513 671 380 671 c 1,0,1
380 700 m 128,-1,11
 525 700 525 700 627.5 597.5 c 128,-1,12
 730 495 730 495 730 350 c 128,-1,13
 730 205 730 205 627.5 102.5 c 128,-1,14
 525 0 525 0 380 0 c 128,-1,15
 235 0 235 0 132.5 102.5 c 128,-1,16
 30 205 30 205 30 350 c 128,-1,17
 30 495 30 495 132.5 597.5 c 128,-1,10
 235 700 235 700 380 700 c 128,-1,11
EndSplineSet
EndChar

StartChar: F
Encoding: 70 70 32
Width: 760
GlyphClass: 2
Flags: W
LayerCount: 2
Fore
SplineSet
380 671 m 128,-1,1
 247 671 247 671 153 577 c 128,-1,2
 59 483 59 483 59 350 c 128,-1,3
 59 217 59 217 153 123 c 128,-1,4
 247 29 247 29 380 29 c 128,-1,5
 513 29 513 29 607 123 c 128,-1,6
 701 217 701 217 701 350 c 128,-1,7
 701 483 701 483 607 577 c 128,-1,0
 513 671 513 671 380 671 c 128,-1,1
380 700 m 128,-1,9
 525 700 525 700 627.5 597.5 c 128,-1,10
 730 495 730 495 730 350 c 128,-1,11
 730 205 730 205 627.5 102.5 c 128,-1,12
 525 0 525 0 380 0 c 128,-1,13
 235 0 235 0 132.5 102.5 c 128,-1,14
 30 205 30 205 30 350 c 128,-1,15
 30 495 30 495 132.5 597.5 c 128,-1,8
 235 700 235 700 380 700 c 128,-1,9
EndSplineSet
EndChar

StartChar: G
Encoding: 71 71 33
Width: 760
GlyphClass: 2
Flags: W
LayerCount: 2
Fore
SplineSet
380 671 m 1,0,1
 247 671 247 671 153 577 c 128,-1,2
 59 483 59 483 59 350 c 128,-1,3
 59 217 59 217 153 123 c 128,-1,4
 247 29 247 29 380 29 c 1,5,6
 486 63 486 63 549.5 150.5 c 128,-1,7
 613 238 613 238 613 350 c 128,-1,8
 613 462 613 462 549.5 549.5 c 128,-1,9
 486 637 486 637 380 671 c 1,0,1
380 700 m 128,-1,11
 525 700 525 700 627.5 597.5 c 128,-1,12
 730 495 730 495 730 350 c 128,-1,13
 730 205 730 205 627.5 102.5 c 128,-1,14
 525 0 525 0 380 0 c 128,-1,15
 235 0 235 0 132.5 102.5 c 128,-1,16
 30 205 30 205 30 350 c 128,-1,17
 30 495 30 495 132.5 597.5 c 128,-1,10
 235 700 235 700 380 700 c 128,-1,11
EndSplineSet
EndChar

StartChar: H
Encoding: 72 72 34
Width: 760
GlyphClass: 2
Flags: W
LayerCount: 2
Fore
SplineSet
380 671 m 1,0,1
 247 671 247 671 153 577 c 128,-1,2
 59 483 59 483 59 350 c 128,-1,3
 59 217 59 217 153 123 c 128,-1,4
 247 29 247 29 380 29 c 1,5,6
 497 168 497 168 497 350 c 128,-1,7
 497 532 497 532 380 671 c 1,0,1
380 700 m 128,-1,9
 525 700 525 700 627.5 597.5 c 128,-1,10
 730 495 730 495 730 350 c 128,-1,11
 730 205 730 205 627.5 102.5 c 128,-1,12
 525 0 525 0 380 0 c 128,-1,13
 235 0 235 0 132.5 102.5 c 128,-1,14
 30 205 30 205 30 350 c 128,-1,15
 30 495 30 495 132.5 597.5 c 128,-1,8
 235 700 235 700 380 700 c 128,-1,9
EndSplineSet
EndChar

StartChar: I
Encoding: 73 73 35
Width: 760
GlyphClass: 2
Flags: W
LayerCount: 2
Fore
SplineSet
380 671 m 1,0,1
 247 671 247 671 153 577 c 128,-1,2
 59 483 59 483 59 350 c 128,-1,3
 59 217 59 217 153 123 c 128,-1,4
 247 29 247 29 380 29 c 1,5,-1
 380 671 l 1,0,1
380 700 m 128,-1,7
 525 700 525 700 627.5 597.5 c 128,-1,8
 730 495 730 495 730 350 c 128,-1,9
 730 205 730 205 627.5 102.5 c 128,-1,10
 525 0 525 0 380 0 c 128,-1,11
 235 0 235 0 132.5 102.5 c 128,-1,12
 30 205 30 205 30 350 c 128,-1,13
 30 495 30 495 132.5 597.5 c 128,-1,6
 235 700 235 700 380 700 c 128,-1,7
EndSplineSet
EndChar

StartChar: J
Encoding: 74 74 36
Width: 760
GlyphClass: 2
Flags: W
LayerCount: 2
Fore
SplineSet
380 671 m 1,0,1
 247 671 247 671 153 577 c 128,-1,2
 59 483 59 483 59 350 c 128,-1,3
 59 217 59 217 153 123 c 128,-1,4
 247 29 247 29 380 29 c 1,5,6
 263 168 263 168 263 350 c 128,-1,7
 263 532 263 532 380 671 c 1,0,1
380 700 m 128,-1,9
 525 700 525 700 627.5 597.5 c 128,-1,10
 730 495 730 495 730 350 c 128,-1,11
 730 205 730 205 627.5 102.5 c 128,-1,12
 525 0 525 0 380 0 c 128,-1,13
 235 0 235 0 132.5 102.5 c 128,-1,14
 30 205 30 205 30 350 c 128,-1,15
 30 495 30 495 132.5 597.5 c 128,-1,8
 235 700 235 700 380 700 c 128,-1,9
EndSplineSet
EndChar

StartChar: K
Encoding: 75 75 37
Width: 760
GlyphClass: 2
Flags: W
LayerCount: 2
Fore
SplineSet
380 671 m 1,0,1
 247 671 247 671 153 577 c 128,-1,2
 59 483 59 483 59 350 c 128,-1,3
 59 217 59 217 153 123 c 128,-1,4
 247 29 247 29 380 29 c 1,5,6
 274 63 274 63 210.5 150.5 c 128,-1,7
 147 238 147 238 147 350 c 128,-1,8
 147 462 147 462 210.5 549.5 c 128,-1,9
 274 637 274 637 380 671 c 1,0,1
380 700 m 128,-1,11
 525 700 525 700 627.5 597.5 c 128,-1,12
 730 495 730 495 730 350 c 128,-1,13
 730 205 730 205 627.5 102.5 c 128,-1,14
 525 0 525 0 380 0 c 128,-1,15
 235 0 235 0 132.5 102.5 c 128,-1,16
 30 205 30 205 30 350 c 128,-1,17
 30 495 30 495 132.5 597.5 c 128,-1,10
 235 700 235 700 380 700 c 128,-1,11
EndSplineSet
EndChar

StartChar: P
Encoding: 80 80 38
Width: 965
GlyphClass: 2
Flags: W
LayerCount: 2
Fore
SplineSet
590 686 m 1,0,-1
 656 678 l 1,1,2
 649 622 649 622 611 580.5 c 128,-1,3
 573 539 573 539 518 528 c 1,4,-1
 520 464 l 1,5,6
 600 475 600 475 659 531.5 c 128,-1,7
 718 588 718 588 733 668 c 1,8,-1
 798 660 l 1,9,10
 784 552 784 552 707 475 c 128,-1,11
 630 398 630 398 522 384 c 1,12,-1
 523 320 l 1,13,14
 657 333 657 333 755 425.5 c 128,-1,15
 853 518 853 518 875 650 c 1,16,-1
 940 642 l 1,17,18
 920 482 920 482 803.5 368.5 c 128,-1,19
 687 255 687 255 525 240 c 1,20,-1
 526 169 l 1,21,22
 583 155 583 155 620 107.5 c 128,-1,23
 657 60 657 60 657 0 c 1,24,-1
 593 0 l 1,25,26
 584 60 584 60 528 86 c 1,27,-1
 530 0 l 1,28,-1
 435 0 l 1,29,-1
 437 86 l 1,30,31
 381 60 381 60 372 0 c 1,32,-1
 308 0 l 1,33,34
 308 60 308 60 345 107.5 c 128,-1,35
 382 155 382 155 439 169 c 1,36,-1
 440 240 l 1,37,38
 278 255 278 255 161.5 368.5 c 128,-1,39
 45 482 45 482 25 642 c 1,40,-1
 90 650 l 1,41,42
 112 518 112 518 210 425.5 c 128,-1,43
 308 333 308 333 442 320 c 1,44,-1
 444 384 l 1,45,46
 335 397 335 397 258 474.5 c 128,-1,47
 181 552 181 552 167 660 c 1,48,-1
 233 668 l 1,49,50
 247 588 247 588 306 531.5 c 128,-1,51
 365 475 365 475 445 464 c 1,52,-1
 447 528 l 1,53,54
 392 539 392 539 354 580.5 c 128,-1,55
 316 622 316 622 309 678 c 1,56,-1
 375 686 l 1,57,58
 382 659 382 659 402 638.5 c 128,-1,59
 422 618 422 618 449 609 c 1,60,-1
 451 696 l 1,61,-1
 483 700 l 1,62,-1
 514 696 l 1,63,-1
 516 609 l 1,64,65
 543 618 543 618 563 638.5 c 128,-1,66
 583 659 583 659 590 686 c 1,0,-1
483 700 m 1024,67,-1
EndSplineSet
EndChar

StartChar: braceright
Encoding: 125 125 39
Width: 800
GlyphClass: 2
Flags: W
LayerCount: 2
Fore
SplineSet
400 630 m 128,-1,1
 284 630 284 630 202 548 c 128,-1,2
 120 466 120 466 120 350 c 128,-1,3
 120 234 120 234 202 152 c 128,-1,4
 284 70 284 70 400 70 c 128,-1,5
 516 70 516 70 598 152 c 128,-1,6
 680 234 680 234 680 350 c 128,-1,7
 680 466 680 466 598 548 c 128,-1,0
 516 630 516 630 400 630 c 128,-1,1
400 700 m 128,-1,9
 545 700 545 700 647.5 597.5 c 128,-1,10
 750 495 750 495 750 350 c 128,-1,11
 750 205 750 205 647.5 102.5 c 128,-1,12
 545 0 545 0 400 0 c 128,-1,13
 255 0 255 0 152.5 102.5 c 128,-1,14
 50 205 50 205 50 350 c 128,-1,15
 50 495 50 495 152.5 597.5 c 128,-1,8
 255 700 255 700 400 700 c 128,-1,9
400 550 m 128,-1,17
 434 550 434 550 459 525 c 128,-1,18
 484 500 484 500 484 466 c 128,-1,19
 484 432 484 432 459 407 c 128,-1,20
 434 382 434 382 400 382 c 128,-1,21
 366 382 366 382 341 407 c 128,-1,22
 316 432 316 432 316 466 c 128,-1,23
 316 500 316 500 341 525 c 128,-1,16
 366 550 366 550 400 550 c 128,-1,17
505 368 m 128,-1,25
 540 368 540 368 564.5 343 c 128,-1,26
 589 318 589 318 589 284 c 128,-1,27
 589 250 589 250 564.5 225 c 128,-1,28
 540 200 540 200 505 200 c 128,-1,29
 470 200 470 200 445.5 225 c 128,-1,30
 421 250 421 250 421 284 c 128,-1,31
 421 318 421 318 445.5 343 c 128,-1,24
 470 368 470 368 505 368 c 128,-1,25
295 368 m 128,-1,33
 330 368 330 368 354.5 343 c 128,-1,34
 379 318 379 318 379 284 c 128,-1,35
 379 250 379 250 354.5 225 c 128,-1,36
 330 200 330 200 295 200 c 128,-1,37
 260 200 260 200 235.5 225 c 128,-1,38
 211 250 211 250 211 284 c 128,-1,39
 211 318 211 318 235.5 343 c 128,-1,32
 260 368 260 368 295 368 c 128,-1,33
EndSplineSet
EndChar

StartChar: asciitilde
Encoding: 126 126 40
Width: 780
GlyphClass: 2
Flags: W
LayerCount: 2
Fore
SplineSet
40 467 m 0,0,1
 40 558 40 558 131 624.5 c 128,-1,2
 222 691 222 691 357 699 c 0,3,4
 365 700 365 700 367 696.5 c 128,-1,5
 369 693 369 693 364 689 c 0,6,7
 346 676 346 676 346 654 c 128,-1,8
 346 632 346 632 363 623 c 0,9,10
 368 621 368 621 368 617.5 c 128,-1,11
 368 614 368 614 360 613 c 0,12,13
 244 603 244 603 186 560 c 128,-1,14
 128 517 128 517 128 467 c 0,15,16
 128 426 128 426 166.5 391 c 128,-1,17
 205 356 205 356 272 337 c 0,18,19
 286 334 286 334 289 320 c 0,20,21
 297 292 297 292 290 259 c 0,22,23
 287 244 287 244 272 247 c 0,24,25
 164 275 164 275 102 334 c 128,-1,26
 40 393 40 393 40 467 c 0,0,1
509 247 m 0,27,28
 617 275 617 275 679 334 c 128,-1,29
 741 393 741 393 741 467 c 0,30,31
 741 558 741 558 649.5 625 c 128,-1,32
 558 692 558 692 424 700 c 0,33,34
 419 700 419 700 416 698.5 c 128,-1,35
 413 697 413 697 413.5 694.5 c 128,-1,36
 414 692 414 692 417 690 c 0,37,38
 434 676 434 676 434 655 c 0,39,40
 434 630 434 630 418 622 c 0,41,42
 413 620 413 620 413 616.5 c 128,-1,43
 413 613 413 613 421 612 c 0,44,45
 520 606 520 606 586.5 564.5 c 128,-1,46
 653 523 653 523 653 467 c 0,47,48
 653 426 653 426 614.5 391 c 128,-1,49
 576 356 576 356 509 337 c 0,50,51
 495 334 495 334 492 320 c 0,52,53
 483 289 483 289 491 259 c 0,54,55
 494 244 494 244 509 247 c 0,27,28
303 20 m 0,56,57
 347 59 347 59 347 117 c 2,58,-1
 347 547 l 2,59,60
 347 554 347 554 356 558 c 0,61,62
 387 567 387 567 426 559 c 0,63,64
 434 556 434 556 434 548 c 2,65,-1
 434 117 l 2,66,67
 434 57 434 57 478 19 c 0,68,69
 488 9 488 9 485 3.5 c 128,-1,70
 482 -2 482 -2 471 0 c 0,71,72
 390 14 390 14 311 0 c 0,73,74
 299 -2 299 -2 296 4 c 128,-1,75
 293 10 293 10 303 20 c 0,56,57
EndSplineSet
EndChar
